# xmcd
#
# Track frame offsets: 
#        150
#        16132
#        36107
#        54602
#        68667
#        85277
#        98370
#        120537
#        143047
#        159122
#        174332
#        193277
#        208060
#        227750
#        249750
#        268825
#
# Disc length: 3808 seconds
#
# Revision: 0
# Processed by: cddbd v1.5.2PL0 Copyright (c) Steve Scherf et al.
# Submitted via: ExactAudioCopyFreeDBPlugin 1.0
#
DISCID=cb0ede10
DTITLE=三島敏夫 - 歌謡ベスト 16
DYEAR=1997
DGENRE=Pop
TTITLE0=人妻椿
TTITLE1=富士エレジー
TTITLE2=やっと逢えたね
TTITLE3=俺はお前に弱いんだ
TTITLE4=ブン屋小唄
TTITLE5=松の木小唄
TTITLE6=北航路
TTITLE7=港の別れ詩
TTITLE8=面影
TTITLE9=女って可愛いね！
TTITLE10=京の木屋町夢の夜
TTITLE11=錦糸町ブルース
TTITLE12=さすらいのブルース
TTITLE13=愛妻
TTITLE14=もういちど小樽
TTITLE15=さすらい
EXTD=
EXTT0=
EXTT1=
EXTT2=
EXTT3=
EXTT4=
EXTT5=
EXTT6=
EXTT7=
EXTT8=
EXTT9=
EXTT10=
EXTT11=
EXTT12=
EXTT13=
EXTT14=
EXTT15=
PLAYORDER=
